<?xml version="1.0" encoding="utf-8"?>
<!-- Generator: Adobe Illustrator 23.1.0, SVG Export Plug-In . SVG Version: 6.00 Build 0)  -->
<svg version="1.1" id="Layer_1" xmlns="http://www.w3.org/2000/svg" xmlns:xlink="http://www.w3.org/1999/xlink" x="0px" y="0px"
	 viewBox="0 0 564 564" style="enable-background:new 0 0 564 564;" xml:space="preserve">
<style type="text/css">
	.st0{fill:#EE82EE;}
</style>
<circle class="st0" cx="97.3" cy="93.9" r="83.6"/>
<circle class="st0" cx="466.7" cy="463.3" r="83.6"/>
<rect x="198.4" y="17.4" transform="matrix(0.7071 -0.7071 0.7071 0.7071 -114.3807 281.0055)" class="st0" width="167.3" height="522.4"/>
<path d="M426.6,332.3l0,76.6c0,2.5-0.3,4.9-0.8,7.3l-25.5,108.5c-3.4,14.4-16.3,24.6-31.1,24.6l-166,0c-10.2,0-19.8-4.9-25.8-13.1
	L75.1,395.7c-10.4-14.3-7.2-34.2,7-44.6c14.3-10.4,34.2-7.2,44.6,7l25.3,34.7l0-220.3c0-17.6,14.3-31.9,31.9-31.9
	c17.6,0,31.9,14.3,31.9,31.9l0,159.6h6.4l0-31.9c0-17.6,14.3-31.9,31.9-31.9c17.6,0,31.9,14.3,31.9,31.9v31.9h6.4v-19.2
	c0-17.6,14.3-31.9,31.9-31.9c17.6,0,31.9,14.3,31.9,31.9v19.2h6.4c0-17.6,14.3-31.9,31.9-31.9C412.3,300.3,426.6,314.6,426.6,332.3z
	 M222.2,396.1h-6.4l0,76.6h6.4L222.2,396.1z M292.5,396.1h-6.4l0,76.6h6.4L292.5,396.1z M362.7,396.1h-6.4l0,76.6h6.4L362.7,396.1z"
	/>
</svg>
