<?xml version="1.0" encoding="utf-8"?>
<!-- Generator: Adobe Illustrator 23.1.0, SVG Export Plug-In . SVG Version: 6.00 Build 0)  -->
<svg version="1.1" id="Layer_1" xmlns="http://www.w3.org/2000/svg" xmlns:xlink="http://www.w3.org/1999/xlink" x="0px" y="0px"
	 viewBox="0 0 564 564" style="enable-background:new 0 0 564 564;" xml:space="preserve">
<style type="text/css">
	.st0{fill:#D7F238;}
</style>
<title>standard_node</title>
<circle class="st0" cx="282" cy="282" r="282"/>
<path d="M521.2,325.7l22.5,57.4c0.7,1.8,1.2,3.8,1.5,5.7l12.8,88.8c1.7,11.8-4.9,23.2-16,27.6l-124.4,48.9c-7.7,3-16.3,2.2-23.2-2.3
	l-117.9-75.2c-12-7.6-15.5-23.5-7.8-35.5c7.6-12,23.5-15.5,35.5-7.8l29.1,18.6l-64.8-165c-5.2-13.2,1.3-28.1,14.5-33.3
	c13.2-5.2,28.1,1.3,33.3,14.5l47,119.6l4.8-1.9l-9.4-23.9c-5.2-13.2,1.3-28.1,14.5-33.3c13.2-5.2,28.1,1.3,33.3,14.5l9.4,23.9
	l4.8-1.9l-5.6-14.4c-5.2-13.2,1.3-28.1,14.5-33.3c13.2-5.2,28.1,1.3,33.3,14.5l5.6,14.4l4.8-1.9c-5.2-13.2,1.3-28.1,14.5-33.3
	C501.1,306,516,312.5,521.2,325.7z M386.9,433.6l-4.8,1.9l22.5,57.4l4.8-1.9L386.9,433.6z M439.5,413l-4.8,1.9l22.5,57.4l4.8-1.9
	L439.5,413z M492.1,392.3l-4.8,1.9l22.5,57.4l4.8-1.9L492.1,392.3z"/>
</svg>
