<?xml version="1.0" encoding="utf-8"?>
<!-- Generator: Adobe Illustrator 23.1.0, SVG Export Plug-In . SVG Version: 6.00 Build 0)  -->
<svg version="1.1" id="Layer_1" xmlns="http://www.w3.org/2000/svg" xmlns:xlink="http://www.w3.org/1999/xlink" x="0px" y="0px"
	 viewBox="0 0 564 564" style="enable-background:new 0 0 564 564;" xml:space="preserve">
<style type="text/css">
	.st0{fill:#90EE90;}
</style>
<circle class="st0" cx="97.3" cy="93.9" r="83.6"/>
<circle class="st0" cx="445.7" cy="470.8" r="83.6"/>
<path class="st0" d="M180.9,93.9c0,0-70,296.7,285.7,296.8l-21,163.7C-48.7,504.9,14,86.7,14,86.7L180.9,93.9z"/>
<path d="M386.6,310.4l25.9,58.6c0.8,1.9,1.4,3.9,1.8,5.9l17.1,91.7c2.3,12.2-4.1,24.3-15.5,29.3l-127.1,56.1
	c-7.8,3.5-16.8,3-24.2-1.3l-125.7-73c-12.8-7.4-17.1-23.8-9.7-36.5c7.4-12.8,23.8-17.1,36.5-9.7l31.1,18l-74.4-168.6
	c-6-13.5,0.2-29.3,13.6-35.2c13.5-6,29.3,0.2,35.2,13.6l53.9,122.2l4.9-2.2l-10.8-24.4c-6-13.5,0.2-29.3,13.6-35.2
	c13.5-6,29.3,0.2,35.2,13.6l10.8,24.4l4.9-2.2l-6.5-14.7c-6-13.5,0.2-29.3,13.6-35.2c13.5-6,29.3,0.2,35.2,13.6l6.5,14.7l4.9-2.2
	c-6-13.5,0.2-29.3,13.6-35.2C364.9,290.8,380.7,296.9,386.6,310.4z M251.8,428.4l-4.9,2.2l25.9,58.6l4.9-2.2L251.8,428.4z
	 M305.6,404.6l-4.9,2.2l25.9,58.6l4.9-2.2L305.6,404.6z M359.3,380.9l-4.9,2.2l25.9,58.6l4.9-2.2L359.3,380.9z"/>
</svg>
